<?xml version="1.0" encoding="iso-8859-1"?>
<!-- Generator: Adobe Illustrator 19.0.0, SVG Export Plug-In . SVG Version: 6.00 Build 0)  -->
<svg version="1.1" id="Layer_1" xmlns="http://www.w3.org/2000/svg" xmlns:xlink="http://www.w3.org/1999/xlink" x="0px" y="0px"
	 viewBox="0 0 512 512" style="enable-background:new 0 0 512 512;" xml:space="preserve">
<circle style="fill:#DED2CA;" cx="256" cy="251.319" r="212.114"/>
<circle style="fill:#F7E9E1;" cx="256" cy="251.319" r="189.398"/>
<circle style="fill:#DED2CA;" cx="256" cy="251.319" r="123.319"/>
<path style="fill:#FFA163;" d="M176.62,491.086L176.62,491.086c-11.511,0-20.84-9.331-20.84-20.841V136.492h41.682v333.754
	C197.461,481.755,188.131,491.086,176.62,491.086z"/>
<path style="fill:#E88441;" d="M176.62,470.246V136.492h-20.84v333.754c0,11.511,9.331,20.842,20.84,20.842
	c3.8,0,7.353-1.033,10.421-2.811C180.818,484.671,176.62,477.955,176.62,470.246z"/>
<path style="fill:#FFDC7B;" d="M335.383,491.086L335.383,491.086c-11.511,0-20.841-9.331-20.841-20.841V136.492h41.682v333.754
	C356.223,481.755,346.893,491.086,335.383,491.086z"/>
<path style="fill:#F0AE59;" d="M335.265,470.246V136.492h-20.723v333.754c0,11.511,9.331,20.842,20.84,20.842l0,0
	c3.776,0,7.307-1.02,10.362-2.775C339.488,484.715,335.265,477.979,335.265,470.246z"/>
<path style="fill:#A9CF54;" d="M256.883,498.856c0,0-8.694-76.002,43.339-118.013s139.766-27.813,139.766-27.813
	s-4.866,111.88-58.003,137.109S256.883,498.856,256.883,498.856z"/>
<path style="fill:#8AA848;" d="M321.12,377.257c12.106-10.527,26.146-17.774,40.563-22.701
	c-21.359,4.008-43.529,11.809-61.461,26.288c-52.034,42.012-43.34,118.013-43.34,118.013s8.04,1.843,20.72,3.356
	C276.674,489.056,274.053,418.184,321.12,377.257z"/>
<path style="fill:#A9CF54;" d="M257.579,498.856c0,0,8.694-76.002-43.339-118.013S74.473,353.029,74.473,353.029
	s4.866,111.88,58.003,137.109S257.579,498.856,257.579,498.856z"/>
<path style="fill:#8AA848;" d="M153.219,493.683c-48.812-24.486-56.891-126.209-57.882-142.61
	c-12.747,0.646-20.863,1.957-20.863,1.957s4.866,111.88,58.003,137.109c13.795,6.549,28.858,10.282,43.602,12.224
	C168.259,500.202,160.559,497.365,153.219,493.683z"/>
<path style="fill:#E88441;" d="M231.41,105.663c0,41.843-24.53,61.141-54.79,61.141s-54.79-19.298-54.79-61.141
	s24.53-90.386,54.79-90.386S231.41,63.82,231.41,105.663z"/>
<path style="fill:#FFA163;" d="M176.62,145.906c-22.173,0-33.892-13.915-33.892-40.243c0-17.051,4.972-35.939,13.298-50.523
	c6.578-11.521,14.661-18.965,20.594-18.965s14.016,7.444,20.594,18.965c8.327,14.584,13.298,33.471,13.298,50.523
	C210.512,131.99,198.792,145.906,176.62,145.906z"/>
<path style="fill:#FFDC7B;" d="M371.403,7.837L371.403,7.837c-5.012,0-9.075,4.063-9.075,9.075v58.665
	c0,4.935-4.001,8.935-8.935,8.935l0,0c-4.935,0-8.935-4.001-8.935-8.935V16.912c0-5.012-4.063-9.075-9.075-9.075l0,0
	c-5.012,0-9.075,4.063-9.075,9.075v58.665c0,4.935-4.001,8.935-8.935,8.935l0,0c-4.935,0-8.935-4.001-8.935-8.935V16.912
	c0-5.012-4.063-9.075-9.075-9.075l0,0c-5.012,0-9.075,4.063-9.075,9.075v104.797c0,24.905,20.189,45.096,45.096,45.096l0,0
	c24.905,0,45.096-20.19,45.096-45.096V16.912C380.478,11.899,376.415,7.837,371.403,7.837z"/>
<path d="M475.951,251.291c0-23.414-3.664-46.469-10.89-68.522c-1.348-4.113-5.777-6.353-9.887-5.006
	c-4.114,1.347-6.355,5.773-5.007,9.886c6.709,20.476,10.111,41.889,10.111,63.643c0,32.6-7.818,64.699-22.638,93.462
	c-7.508-0.949-25.946-2.778-48.49-1.43c-8.703,0.521-17.065,1.493-25.087,2.857v-20.611c15.102-21.905,23.092-47.522,23.092-74.277
	s-7.99-52.371-23.092-74.276v-10.871c14.577-9.436,24.251-25.829,24.251-44.448V95.665c16.894,14.342,31.234,31.203,42.744,50.294
	c1.472,2.441,4.063,3.792,6.72,3.792c1.377,0,2.773-0.364,4.039-1.126c3.706-2.234,4.9-7.049,2.666-10.756
	c-14.635-24.274-33.526-45.194-56.167-62.252V16.91C388.314,7.586,380.728,0,371.403,0c-9.326,0-16.912,7.586-16.912,16.91v37.699
	c-0.732-0.368-1.462-0.743-2.197-1.102V16.91C352.295,7.586,344.708,0,335.383,0s-16.912,7.586-16.912,16.91v23.473
	c-0.732-0.216-1.464-0.428-2.197-0.636V16.91c0-9.324-7.587-16.91-16.912-16.91c-9.325,0-16.912,7.586-16.912,16.91v16.039
	c-21.217-2.536-43.093-1.986-64.184,1.65C206.522,17.039,191.88,7.44,176.619,7.44c-14.447,0-28.715,8.882-40.175,25.009
	c-9.471,13.329-16.533,30.609-20.046,48.933c-51.092,41.978-80.348,103.723-80.348,169.91c0,40.075,10.868,79.222,31.436,113.347
	c2.859,30.04,14.796,110.291,61.631,132.526c24.356,11.563,52.091,14.835,75.7,14.835c25.312,0,45.866-3.763,52.415-5.111
	c6.548,1.348,27.099,5.111,52.415,5.111c23.606,0,51.347-3.275,75.701-14.837c3.91-1.856,5.575-6.53,3.718-10.44
	c-1.856-3.909-6.53-5.574-10.441-3.718c-34.75,16.499-78.822,14.075-102.703,11.013l31.242-24.082l70.804,7.91
	c0.296,0.032,0.588,0.049,0.88,0.049c3.938,0,7.331-2.962,7.778-6.966c0.481-4.302-2.616-8.177-6.918-8.658l-54.676-6.107
	l25.165-19.397l51.344,9.185c0.467,0.084,0.931,0.123,1.39,0.123c3.723,0,7.027-2.664,7.705-6.456
	c0.762-4.261-2.073-8.332-6.334-9.094l-37.34-6.68l52.711-40.63c3.427-2.642,4.065-7.562,1.422-10.989
	c-2.643-3.428-7.564-4.064-10.991-1.421l-54.104,41.704v-35.497c0-4.328-3.509-7.836-7.837-7.836c-4.328,0-7.837,3.508-7.837,7.836
	v47.578l-26.817,20.671l2.274-48.459c0.203-4.323-3.137-7.992-7.461-8.195c-4.323-0.19-7.992,3.138-8.195,7.461l-2.896,61.742
	l-31.266,24.101c-0.087-4.022-0.32-8.583-0.795-13.541c2.61-24.387,11.623-58.579,39.978-81.47
	c40.356-32.578,105.115-29.207,126.494-27.036c-1.407,16.139-6.261,56.165-21.312,87.253c-1.886,3.894-0.257,8.582,3.638,10.467
	c3.894,1.885,8.582,0.257,10.469-3.639c16.829-34.761,21.69-78.145,22.968-94.265C466.08,326.772,475.951,289.339,475.951,251.291z
	 M371.482,251.291c0,14.122-2.537,27.88-7.419,40.794v-81.586C368.945,223.412,371.482,237.169,371.482,251.291z M348.39,349.458
	c-9.292,2.366-17.97,5.373-26.007,8.954v-185.41c4.162,1.054,8.516,1.62,13.001,1.62c4.487,0,8.844-0.565,13.007-1.622V349.458z
	 M163.621,173.467c0.685,0.123,1.369,0.252,2.059,0.354c0.007,0.001,0.014,0.003,0.02,0.004c0.005,0.001,0.012,0.001,0.017,0.002
	c0.009,0.001,0.019,0.003,0.029,0.005c0.006,0.001,0.014,0,0.02,0.001c3.465,0.524,7.115,0.791,10.853,0.791
	c4.484,0,8.831-0.38,13.009-1.136v183.829c-8.049-3.407-16.754-6.215-26.008-8.44L163.621,173.467L163.621,173.467z
	 M205.302,355.043V168.486c12.909-6.126,22.537-16.521,28.191-30.45c7.355-1.458,14.905-2.204,22.507-2.204
	c10.075,0,20.011,1.291,29.598,3.837c3.971,10.961,11.469,20.239,21.111,26.479v188.896C291.03,362.713,273.6,366.76,256,366.76
	C238.406,366.76,220.98,362.714,205.302,355.043z M354.491,72.305v3.263c0,0.606-0.493,1.099-1.098,1.099
	c-0.605,0-1.098-0.493-1.098-1.099v-4.446C353.028,71.515,353.764,71.903,354.491,72.305z M318.471,56.779v18.789
	c0,0.606-0.493,1.099-1.098,1.099c-0.606,0-1.099-0.493-1.099-1.099v-19.48C317.007,56.315,317.74,56.545,318.471,56.779z
	 M298.124,16.91c0-0.682,0.556-1.237,1.238-1.237c0.682,0,1.238,0.555,1.238,1.237v58.658c0,9.247,7.524,16.771,16.773,16.771
	s16.772-7.523,16.772-16.771V51.435c0-0.01,0-0.02,0-0.03V16.91c0-0.682,0.556-1.237,1.238-1.237c0.682,0,1.238,0.555,1.238,1.237
	v58.658c0,9.247,7.524,16.771,16.772,16.771c9.247,0,16.772-7.523,16.772-16.771V16.91c0-0.682,0.556-1.237,1.238-1.237
	c0.682,0,1.238,0.555,1.238,1.237v104.787c0,20.542-16.714,37.254-37.259,37.254s-37.259-16.712-37.259-37.254V16.91H298.124z
	 M282.451,48.747v72.949c0,0.391,0.021,0.777,0.029,1.166c-8.661-1.781-17.523-2.702-26.48-2.702c-6.03,0-12.034,0.42-17.959,1.233
	c0.795-4.986,1.209-10.242,1.209-15.745c0-18.838-4.703-39.214-12.81-56.473C244.948,46.508,263.993,46.366,282.451,48.747z
	 M176.619,23.111c10.656,0,21.998,8.804,31.122,24.16c9.916,16.663,15.836,38.487,15.836,58.377c0,8.606-1.133,16.403-3.365,23.165
	c-4.397,13.281-13.19,22.659-25.43,27.122l0,0c-5.495,2.001-11.606,3.016-18.163,3.016c-2.974,0-5.854-0.209-8.558-0.621
	c-0.006-0.001-0.013-0.001-0.019-0.002c-0.009-0.001-0.018-0.004-0.026-0.005c-3.314-0.485-6.529-1.288-9.548-2.389
	c-18.569-6.767-28.795-24.626-28.795-50.288c0-6.056,0.553-12.353,1.643-18.715c0.009-0.057,0.019-0.113,0.027-0.17
	C137.359,51.649,157.651,23.111,176.619,23.111z M114.024,104.455c-0.004,0.396-0.026,0.799-0.026,1.193
	c0,29.956,12.295,52.519,33.949,62.842v8.47c-9.588,13.893-16.31,29.271-19.979,45.756c-0.94,4.225,1.722,8.41,5.947,9.351
	c0.574,0.127,1.146,0.189,1.709,0.189c3.591,0,6.829-2.485,7.642-6.136c1.193-5.361,2.762-10.588,4.68-15.667v81.576
	c-2.564-6.783-4.5-13.799-5.736-20.922c-0.74-4.264-4.8-7.122-9.06-6.381c-4.265,0.74-7.122,4.796-6.382,9.06
	c3.207,18.482,10.519,36.337,21.18,51.814v20.167c-7.273-1.149-14.817-1.979-22.636-2.447c-25.443-1.52-45.655,1.005-50.827,1.745
	c-14.926-28.851-22.762-60.976-22.762-93.775C51.722,195.357,74.222,142.839,114.024,104.455z M135.838,483.006
	c-24.638-11.697-37.868-45.937-44.629-72.6c-5.278-20.814-7.513-40.407-8.392-50.552c21.362-2.189,86.06-5.602,126.498,27.043
	c28.36,22.896,37.353,57.261,39.957,81.69c-0.461,4.872-0.69,9.359-0.775,13.321l-31.266-24.101l-2.896-61.742
	c-0.203-4.322-3.862-7.658-8.195-7.461c-4.324,0.203-7.663,3.872-7.461,8.195l2.274,48.459l-26.817-20.671v-47.578
	c0-4.328-3.509-7.836-7.837-7.836c-4.328,0-7.837,3.508-7.837,7.836v35.497l-54.104-41.705c-3.427-2.642-8.349-2.005-10.991,1.421
	c-2.643,3.427-2.005,8.348,1.422,10.989l52.711,40.63l-37.34,6.68c-4.261,0.762-7.097,4.833-6.334,9.094
	c0.678,3.793,3.981,6.456,7.705,6.456c0.458,0,0.923-0.04,1.39-0.123l51.344-9.185l25.165,19.397l-54.675,6.107
	c-4.301,0.481-7.399,4.356-6.918,8.658c0.447,4.006,3.84,6.966,7.778,6.966c0.29,0,0.585-0.017,0.88-0.049l70.803-7.91
	l31.242,24.082C214.657,497.081,170.587,499.503,135.838,483.006z M257.231,430.679c-6.191-18.176-16.583-36.977-33.829-52.364
	c10.61,2.716,21.576,4.117,32.598,4.117c12.254,0,24.438-1.725,36.14-5.069C274.245,392.923,263.55,412.127,257.231,430.679z"/>
<g>
</g>
<g>
</g>
<g>
</g>
<g>
</g>
<g>
</g>
<g>
</g>
<g>
</g>
<g>
</g>
<g>
</g>
<g>
</g>
<g>
</g>
<g>
</g>
<g>
</g>
<g>
</g>
<g>
</g>
</svg>
